<?xml version="1.0" encoding="utf-8" standalone="yes"?>
<!DOCTYPE svg PUBLIC "-//W3C//DTD SVG 1.1//EN" "http://www.w3.org/Graphics/SVG/1.1/DTD/svg11.dtd">
<svg width="984" height="672" viewBox="0 0 984 672" style="fill:none;stroke:none;fill-rule:evenodd;clip-rule:evenodd;stroke-linecap:round;stroke-linejoin:round;stroke-miterlimit:1.5;" version="1.1" xmlns="http://www.w3.org/2000/svg" xmlns:xlink="http://www.w3.org/1999/xlink"><style class="text-font-style fontImports" data-font-family="Arial"></style><rect id="" x="0" y="0" width="984" height="672" style="fill: #ffffff;"></rect><g id="items" style="isolation: isolate"><g id="blend" style="mix-blend-mode: normal"><g id="g-root-tf_4njzsfi3opoj-fill" data-item-order="1999338752"><g id="tf_4njzsfi3opoj-fill" stroke="none" fill="#ffffff"><g><path d="M0 0h984 v672 h -984 Z"></path></g></g></g><g id="g-root-cp_0_g-0_4l23fzi3hpmt-fill" data-item-order="1999449681" transform="translate(66.21098327636719, 303)"></g><g id="g-root-cp_1_g-1_1_1uqj567i3hq8f-fill" data-item-order="1999449694" transform="translate(60, 246)"><g id="cp_1_g-1_1_1uqj567i3hq8f-fill" stroke="none" fill="#2b9aaf"><g><path d="M 34 151C 34.000002 187.450795 63.549208 217.000002 100.000002 217.000002C 136.450795 217.000002 166.000002 187.450795 166.000002 151.000002C 166.000002 114.549208 136.450795 85.000002 100.000002 85.000002C 63.549208 85.000002 34.000002 114.549208 34.000002 151.000002M 10 151C 10 154.313709 12.686292 157 16 157C 19.313709 157 22 154.313709 22 151C 22 147.686292 19.313709 145 16 145C 12.686292 145 10 147.686292 10 151"></path></g></g><g id="cp_1_g-1_1_1uqj567i3hq8f-fill" stroke="none" fill="#2b9aaf"><g><path d="M 109 19C 109 23.9706 104.9706 28 100 28C 95.0294 28 91 23.9706 91 19C 91 14.0294 95.0294 10 100 10C 104.9706 10 109 14.0294 109 19Z"></path></g></g></g><g id="g-root-cp_2_g-2_58lbji3hqf5-fill" data-item-order="1999449706" transform="translate(228, 321)"><g id="cp_2_g-2_58lbji3hqf5-fill" stroke="none" fill="#58cb9c"><g><path d="M 34 76C 34.000002 112.450795 63.549208 142.000002 100.000002 142.000002C 136.450795 142.000002 166.000002 112.450795 166.000002 76.000002C 166.000002 39.549208 136.450795 10.000002 100.000002 10.000002C 63.549208 10.000002 34.000002 39.549208 34.000002 76.000002M 10 76C 10 79.313709 12.686292 82 16 82C 19.313709 82 22 79.313709 22 76C 22 72.686292 19.313709 70 16 70C 12.686292 70 10 72.686292 10 76"></path></g></g><g id="cp_2_g-2_58lbji3hqf5-fill" stroke="none" fill="#58cb9c"><g><path d="M 109 208C 109 212.9706 104.9706 217 100 217C 95.0294 217 91 212.9706 91 208C 91 203.0294 95.0294 199 100 199C 104.9706 199 109 203.0294 109 208Z"></path></g></g></g><g id="g-root-cp_3_g-3_1_1qapn1ri3hr0r-fill" data-item-order="1999449718" transform="translate(396, 246)"><g id="cp_3_g-3_1_1qapn1ri3hr0r-fill" stroke="none" fill="#9cb064"><g><path d="M 34 151C 34.000002 187.450795 63.549208 217.000002 100.000002 217.000002C 136.450795 217.000002 166.000002 187.450795 166.000002 151.000002C 166.000002 114.549208 136.450795 85.000002 100.000002 85.000002C 63.549208 85.000002 34.000002 114.549208 34.000002 151.000002M 10 151C 10 154.313709 12.686292 157 16 157C 19.313709 157 22 154.313709 22 151C 22 147.686292 19.313709 145 16 145C 12.686292 145 10 147.686292 10 151"></path></g></g><g id="cp_3_g-3_1_1qapn1ri3hr0r-fill" stroke="none" fill="#9cb064"><g><path d="M 109 19C 109 23.9706 104.9706 28 100 28C 95.0294 28 91 23.9706 91 19C 91 14.0294 95.0294 10 100 10C 104.9706 10 109 14.0294 109 19Z"></path></g></g></g><g id="g-root-cp_4_g-4_1qapn1ri3hr0t-fill" data-item-order="1999449730" transform="translate(564, 321)"><g id="cp_4_g-4_1qapn1ri3hr0t-fill" stroke="none" fill="#2cd4bf"><g><path d="M 34 76C 34.000002 112.450795 63.549208 142.000002 100.000002 142.000002C 136.450795 142.000002 166.000002 112.450795 166.000002 76.000002C 166.000002 39.549208 136.450795 10.000002 100.000002 10.000002C 63.549208 10.000002 34.000002 39.549208 34.000002 76.000002M 10 76C 10 79.313709 12.686292 82 16 82C 19.313709 82 22 79.313709 22 76C 22 72.686292 19.313709 70 16 70C 12.686292 70 10 72.686292 10 76"></path></g></g><g id="cp_4_g-4_1qapn1ri3hr0t-fill" stroke="none" fill="#2cd4bf"><g><path d="M 109 208C 109 212.9706 104.9706 217 100 217C 95.0294 217 91 212.9706 91 208C 91 203.0294 95.0294 199 100 199C 104.9706 199 109 203.0294 109 208Z"></path></g></g></g><g id="g-root-cp_5_g-5_1_1lvim0fi3honb-fill" data-item-order="1999449742" transform="translate(732, 246)"><g id="cp_5_g-5_1_1lvim0fi3honb-fill" stroke="none" fill="#485696"><g><path d="M 34 151C 34.000002 187.450795 63.549208 217.000002 100.000002 217.000002C 136.450795 217.000002 166.000002 187.450795 166.000002 151.000002C 166.000002 114.549208 136.450795 85.000002 100.000002 85.000002C 63.549208 85.000002 34.000002 114.549208 34.000002 151.000002M 10 151C 10 154.313709 12.686292 157 16 157C 19.313709 157 22 154.313709 22 151C 22 147.686292 19.313709 145 16 145C 12.686292 145 10 147.686292 10 151M 178 151C 178 154.313709 180.686292 157 184 157C 187.313709 157 190 154.313709 190 151C 190 147.686292 187.313709 145 184 145C 180.686292 145 178 147.686292 178 151"></path></g></g><g id="cp_5_g-5_1_1lvim0fi3honb-fill" stroke="none" fill="#485696"><g><path d="M 109 19C 109 23.9706 104.9706 28 100 28C 95.0294 28 91 23.9706 91 19C 91 14.0294 95.0294 10 100 10C 104.9706 10 109 14.0294 109 19Z"></path></g></g></g><g id="g-root-cp_-1_line_1lvim0fi3hond-fill" data-item-order="1999449755" transform="translate(150, 264)"></g><g id="g-root-cp_-1_line_1_1lvim0fi3honf-fill" data-item-order="1999449759" transform="translate(486, 264)"></g><g id="g-root-cp_-1_line_2_1hfp3vzi3hpfp-fill" data-item-order="1999449763" transform="translate(822, 264)"></g><g id="g-root-cp_-1_line_3_1hfp3vzi3hpfr-fill" data-item-order="1999449767" transform="translate(318, 453)"></g><g id="g-root-cp_-1_line_4_1hfp3vzi3hpft-fill" data-item-order="1999449771" transform="translate(654, 453)"></g><g id="g-root-ic_bar_hxrjzji3hr0i-fill" data-item-order="1999996400" transform="translate(120, 357)"><g id="ic_bar_hxrjzji3hr0i-fill" stroke="none" fill="#ffffff"><g><path d="M 13.125 62.5L 21.875 62.5C 22.220177 62.5 22.5 62.220177 22.5 61.875L 22.5 56.875C 22.5 55.494289 21.380713 54.375 20 54.375L 15 54.375C 13.619288 54.375 12.5 55.494289 12.5 56.875L 12.5 61.875C 12.5 62.220177 12.779822 62.5 13.125 62.5ZM 30 41.875C 28.619287 41.875 27.5 42.994286 27.5 44.375L 27.5 61.875C 27.5 62.220177 27.779823 62.5 28.125 62.5L 36.875 62.5C 37.220177 62.5 37.5 62.220177 37.5 61.875L 37.5 44.375C 37.5 42.994286 36.380714 41.875 35 41.875ZM 45 46.875C 43.619286 46.875 42.5 47.994286 42.5 49.375L 42.5 61.875C 42.5 62.220177 42.779823 62.5 43.125 62.5L 51.875 62.5C 52.220177 62.5 52.5 62.220177 52.5 61.875L 52.5 49.375C 52.5 47.994286 51.380711 46.875 50 46.875ZM 60 29.375C 58.619289 29.375 57.5 30.494287 57.5 31.875L 57.5 61.875C 57.5 62.220177 57.779823 62.5 58.125 62.5L 66.875 62.5C 67.220177 62.5 67.5 62.220177 67.5 61.875L 67.5 31.875C 67.5 30.494287 66.380707 29.375 65 29.375ZM 62.5 9.375C 59.738575 9.375 57.5 11.613576 57.5 14.375C 57.503071 14.761551 57.544945 15.146816 57.625 15.525C 57.67313 15.71778 57.626724 15.921959 57.5 16.075001L 49.349998 25.575001C 49.193077 25.749655 48.954163 25.826107 48.724998 25.774998C 48.324429 25.674604 47.91296 25.62422 47.5 25.625C 46.167389 25.623943 44.889492 26.154902 43.950001 27.1C 43.791672 27.272642 43.544437 27.331978 43.325001 27.25L 37.875 25.449999C 37.683094 25.37149 37.542618 25.202917 37.5 25C 37.306232 22.238958 34.91114 20.157614 32.150063 20.350889C 29.388985 20.544165 27.307215 22.938889 27.5 25.699999C 27.460535 26.082317 27.460535 26.467682 27.5 26.849998C 27.634211 27.045883 27.634211 27.304117 27.5 27.5L 20.175001 33.450001C 19.975374 33.571526 19.724625 33.571526 19.525 33.450001C 17.50967 32.557861 15.147878 33.090523 13.710577 34.761341C 12.273277 36.432159 12.099497 38.847031 13.282753 40.706429C 14.466008 42.565834 16.727196 43.431175 18.849501 42.836792C 20.971806 42.242409 22.454622 40.328499 22.5 38.125C 22.538263 37.742619 22.538263 37.357376 22.5 36.974998C 22.382925 36.783112 22.382925 36.541885 22.499998 36.349998L 29.75 30.299999C 29.949625 30.178473 30.200375 30.178473 30.4 30.299999C 31.068628 30.557552 31.7848 30.668388 32.5 30.625C 33.832611 30.626057 35.110508 30.095098 36.049999 29.15C 36.208328 28.977358 36.455563 28.918022 36.674999 29L 42.125 30.799999C 42.357174 30.876785 42.523239 31.081924 42.550003 31.324999C 42.815926 33.253193 44.17667 34.851807 46.037632 35.422306C 47.898594 35.992802 49.92149 35.431473 51.222382 33.983604C 52.523273 32.535736 52.865685 30.464516 52.099998 28.674999C 51.978474 28.475376 51.978474 28.224625 52.099998 28.025L 59.599998 19.15C 59.776569 18.938066 60.071198 18.866949 60.324997 18.975C 60.951328 19.234612 61.622013 19.370445 62.299995 19.375C 65.061424 19.375 67.300003 17.136423 67.300003 14.375C 67.300003 11.613576 65.061424 9.375 62.299999 9.375ZM 12.5 70.625L 67.5 70.625C 68.880707 70.625 70 69.505707 70 68.125C 70.001915 67.169014 69.458481 66.295631 68.599998 65.875C 68.255783 65.712936 67.880447 65.627632 67.499992 65.625L 12.5 65.625C 12.119549 65.627632 11.744217 65.712936 11.4 65.875C 10.541522 66.295631 9.998087 67.169014 10 68.125C 10 69.505707 11.119288 70.625 12.5 70.625Z"></path></g></g></g><g id="g-root-ic_stra_18k23n3i3j4eb-fill" data-item-order="1999996400" transform="translate(288, 357)"><g id="ic_stra_18k23n3i3j4eb-fill" stroke="none" fill="#ffffff"><g><path d="M 14.125 63.674999C 14.125 67.126778 16.923222 69.925003 20.375 69.925003C 23.82678 69.925003 26.625 67.126778 26.625 63.675003C 26.625 60.223221 23.82678 57.425003 20.375 57.425003C 16.923222 57.425003 14.125 60.223221 14.125 63.675003M 35.375 57.424999L 45.375 57.424999C 45.375 57.424999 46.625 57.424999 46.625 58.674999L 46.625 68.674995C 46.625 68.674995 46.625 69.924995 45.375 69.924995L 35.375 69.924995C 35.375 69.924995 34.125 69.924995 34.125 68.674995L 34.125 58.674999C 34.125 58.674999 34.125 57.424999 35.375 57.424999M 10 10M 65.725006 68.099998L 61.5 59.650002C 61.299892 59.215874 60.865532 58.937805 60.387501 58.937805C 59.909473 58.937805 59.475113 59.215874 59.275002 59.650002L 55 68.099998C 54.786205 68.480347 54.786205 68.944649 55 69.324997C 55.220001 69.695862 55.61879 69.923744 56.049999 69.924995L 64.525002 69.924995C 64.956207 69.923744 65.354996 69.695862 65.574997 69.324997C 65.837143 68.971542 65.894119 68.506271 65.725006 68.099998ZM 20.375 55C 21.755713 55 22.875 53.880711 22.875 52.5L 22.875 49.299999C 22.875 48.954823 23.154823 48.674999 23.5 48.674999L 37.25 48.674999C 37.595181 48.674999 37.875 48.954823 37.875 49.299999L 37.875 52.5C 37.875 53.880711 38.994289 55 40.375 55C 41.755711 55 42.875 53.880711 42.875 52.5L 42.875 49.299999C 42.875 48.954823 43.154823 48.674999 43.5 48.674999L 57.25 48.674999C 57.595177 48.674999 57.875 48.954823 57.875 49.299999L 57.875 52.5C 57.875 53.880711 58.994289 55 60.375 55C 61.755711 55 62.875 53.880711 62.875 52.5L 62.875 47.5C 62.875004 45.428932 61.196068 43.75 59.125004 43.75L 21.625 43.75C 19.553932 43.75 17.875 45.428932 17.875 47.5L 17.875 52.5C 17.875 53.880711 18.994287 55 20.375 55ZM 33.900002 28.825001C 34.048004 28.948118 34.131008 29.132574 34.125 29.325001L 34.125 30.699999C 34.165276 31.706133 34.993061 32.500805 36 32.5L 44.75 32.5C 45.249332 32.506794 45.730206 32.311436 46.083321 31.958321C 46.436432 31.605206 46.631798 31.124334 46.625 30.625L 46.625 29.325001C 46.628746 29.129179 46.720589 28.945488 46.874996 28.824999C 49.435368 26.902712 50.959106 23.901405 51.000004 20.700001C 50.89473 14.863722 46.210396 10.14632 40.375 10C 34.545063 10.158957 29.867945 14.869088 29.75 20.699999C 29.800621 23.904823 31.333202 26.905363 33.900002 28.825001ZM 40.174999 41.75C 41.210533 41.75 42.050003 40.910534 42.050003 39.875L 42.049999 39.450001C 42.049999 39.10482 42.329823 38.825001 42.674999 38.825001L 43.5 38.825001C 44.535534 38.825001 45.375 37.985535 45.375 36.950001C 45.375 35.914467 44.535534 35.075001 43.5 35.075001L 37.25 35.075001C 36.214466 35.075001 35.375 35.914467 35.375 36.950001C 35.375 37.985535 36.214466 38.825001 37.25 38.825001L 37.674999 38.825001C 38.020176 38.825001 38.299999 39.10482 38.299999 39.450001L 38.299999 40C 38.377625 40.980812 39.191166 41.74012 40.174999 41.75Z"></path></g></g></g><g id="g-root-ic_text_1luw4xbi3kjd0-fill" data-item-order="1999996400" transform="translate(456, 357)"><g id="ic_text_1luw4xbi3kjd0-fill" stroke="none" fill="#ffffff"><g><path d="M 33.299999 52.5C 33.299999 42.875 42.375 35 53.525002 35C 58.960114 34.929325 64.223831 36.90099 68.275002 40.525002C 68.43898 40.669075 68.662514 40.724957 68.875 40.675003C 69.083572 40.606407 69.243423 40.437153 69.299995 40.224998C 69.76001 38.521278 69.995338 36.764729 70.000008 35.000004C 70 21.224998 56.550003 10 40 10C 23.450001 10 10 21.224998 10 35C 10.077641 41.029846 12.572514 46.776161 16.924999 50.950005L 13.375 62.775002C 13.236868 63.241356 13.381795 63.745495 13.746504 64.067299C 14.111213 64.389099 14.629472 64.470123 15.075 64.274994L 28.75 58.175003C 30.454536 58.74588 32.201687 59.18058 33.974998 59.475002C 34.205299 59.504829 34.434017 59.409527 34.574997 59.224998C 34.686646 59.031624 34.686646 58.793377 34.575001 58.600002C 33.733959 56.676327 33.299866 54.599495 33.300003 52.5ZM 33.75 40.700001L 25 40.700001C 23.964466 40.700001 23.125 39.860535 23.125 38.825001C 23.125 37.789467 23.964466 36.950001 25 36.950001L 33.75 36.950001C 34.785534 36.950001 35.625 37.789467 35.625 38.825001C 35.625 39.860535 34.785534 40.700001 33.75 40.700001ZM 51.25 29.450001L 25 29.450001C 23.964466 29.450001 23.125 28.610535 23.125 27.575001C 23.125 26.539467 23.964466 25.700001 25 25.700001L 51.25 25.700001C 52.285534 25.700001 53.125 26.539467 53.125 27.575001C 53.125 28.610535 52.285534 29.450001 51.25 29.450001ZM 53.525002 38.75C 44.450001 38.75 37.049999 44.875 37.049999 52.424999C 37.049999 61.224998 47.25 68.225006 58.200001 65.5L 66.950005 70C 67.392746 70.227242 67.929825 70.157623 68.299995 69.824997C 68.683754 69.512291 68.841583 68.999352 68.699997 68.525002L 66.449997 61.025002C 68.695648 58.752258 69.968803 55.694885 70 52.5C 70 45 62.5 38.75 53.525002 38.75Z"></path></g></g></g><g id="g-root-ic_4_142d69bi3lwxx-fill" data-item-order="1999996400" transform="translate(624, 357)"><g id="ic_4_142d69bi3lwxx-fill" stroke="none" fill="#ffffff"><g><path d="M 46 38.224998C 46.473282 38.694416 46.739494 39.333405 46.739494 40C 46.739494 40.666595 46.473282 41.305584 46 41.775002L 35.700001 55.524998C 35.234348 55.986862 34.60585 56.247238 33.950001 56.25L 23 56.25C 22.487562 56.268772 22.017658 55.966396 21.822418 55.492241C 21.627176 55.018082 21.747919 54.4725 22.125 54.125L 34.474998 41.775002C 34.94828 41.305584 35.214497 40.666595 35.214497 40C 35.214497 39.333405 34.94828 38.694416 34.474998 38.224998L 22.125 25.875C 21.747919 25.527504 21.627176 24.981916 21.822418 24.507759C 22.017658 24.033604 22.487562 23.731226 23 23.75L 33.950001 23.75C 34.60585 23.752762 35.234348 24.01314 35.700001 24.475ZM 69.274994 38.224998C 69.748283 38.694416 70.014496 39.333405 70.014496 40C 70.014496 40.666595 69.748283 41.305584 69.274994 41.775002L 56.774998 55.524998C 56.3032 55.992966 55.664505 56.253845 55 56.25L 44.075001 56.25C 43.570362 56.252968 43.113445 55.952202 42.916637 55.487514C 42.719826 55.022827 42.821739 54.485378 43.175003 54.125L 55.524998 41.775002C 55.998283 41.305584 56.264496 40.666595 56.264496 40C 56.264496 39.333405 55.998283 38.694416 55.524998 38.224998L 43.175003 25.875C 42.821739 25.51462 42.719826 24.977173 42.916637 24.512486C 43.113445 24.047802 43.570362 23.747036 44.075001 23.75L 55 23.75C 55.664505 23.746159 56.3032 24.007034 56.774998 24.475ZM 12.5 29.174999L 15.9 29.174999C 17.280712 29.174999 18.4 28.055712 18.4 26.674999C 18.4 25.294289 17.280712 24.174999 15.9 24.174999L 12.5 24.174999C 11.119288 24.174999 10 25.294289 10 26.674999C 10 28.055712 11.119288 29.174999 12.5 29.174999ZM 15.9 51.049999L 12.5 51.049999C 11.119288 51.049999 10 52.169289 10 53.549999C 10 54.93071 11.119288 56.049999 12.5 56.049999L 15.9 56.049999C 17.280712 56.049999 18.4 54.93071 18.4 53.549999C 18.4 52.169289 17.280712 51.049999 15.9 51.049999Z"></path></g></g></g><g id="g-root-ic_spar_dj701bi3naq6-fill" data-item-order="1999996400" transform="translate(792, 357)"><g id="ic_spar_dj701bi3naq6-fill" stroke="none" fill="#ffffff"><g><path d="M 59.314999 11.915C 59.14259 11.035225 58.37151 10.40059 57.474998 10.40059C 56.578491 10.40059 55.807415 11.035225 55.634998 11.915C 54.755001 16.395 51.235001 19.940001 46.919998 20.807499C 46.046131 20.984947 45.418121 21.753294 45.418121 22.645C 45.418121 23.536705 46.046131 24.305054 46.920002 24.4825C 51.235001 25.35 54.755001 28.890001 55.6325 33.369999C 55.804916 34.249775 56.575989 34.884411 57.4725 34.884411C 58.369011 34.884411 59.140091 34.249775 59.3125 33.370003C 60.192497 28.890001 63.712502 25.35 68.024994 24.4825C 68.898872 24.305054 69.526886 23.536705 69.526886 22.645C 69.526886 21.753294 68.898872 20.984947 68.025002 20.807499C 63.712502 19.940001 60.192497 16.395 59.3125 11.915ZM 30.17 30.195C 19.452499 30.195 10.47 38.8825 10.47 49.897499C 10.47 60.897499 19.172501 69.597504 30.17 69.597504L 54.0275 69.597504C 61.409996 69.597504 67.4375 63.200001 67.4375 55.927502C 67.4375 48.599998 61.355 42.517502 54.0275 42.517502C 52.177502 42.517502 50.330002 42.93 48.6675 43.665001C 46.0975 35.922501 38.8675 30.195 30.17 30.195Z"></path></g></g></g><g id="g-root-tx_crafting_qtek8fi3hpfz-fill" data-item-order="2000000000" transform="translate(384, 195)"><g id="tx_crafting_qtek8fi3hpfz-fill" stroke="none" fill="#000000"><g><text style="font: 15px Arial, Helvetica, sans-serif; white-space: pre;" font-size="15px" font-family="Arial, Helvetica, sans-serif"><tspan x="11.95" y="27" dominant-baseline="ideographic">Crafting natural and impactful </tspan><tspan x="42.37" y="45" dominant-baseline="ideographic">conversational flows</tspan></text></g></g></g><g id="g-root-tx_adapting_mdl23zi3hq89-fill" data-item-order="2000000000" transform="translate(714, 195)"><g id="tx_adapting_mdl23zi3hq89-fill" stroke="none" fill="#000000"><g><text style="font: 15px Arial, Helvetica, sans-serif; white-space: pre;" font-size="15px" font-family="Arial, Helvetica, sans-serif"><tspan x="13.91" y="27" dominant-baseline="ideographic">Adapting and enhancing the AI </tspan><tspan x="57.3" y="45" dominant-baseline="ideographic">solution over time</tspan></text></g></g></g><g id="g-root-tx_evaluati_zp1khbi3hon9-fill" data-item-order="2000000000" transform="translate(54, 195)"><g id="tx_evaluati_zp1khbi3hon9-fill" stroke="none" fill="#000000"><g><text style="font: 15px Arial, Helvetica, sans-serif; white-space: pre;" font-size="15px" font-family="Arial, Helvetica, sans-serif"><tspan x="11.77" y="27" dominant-baseline="ideographic">Evaluating current business </tspan><tspan x="48.87" y="45" dominant-baseline="ideographic">needs and goals</tspan></text></g></g></g><g id="g-root-tx_conversa_zp1khbi3hona-fill" data-item-order="2000000000" transform="translate(384, 159)"><g id="tx_conversa_zp1khbi3hona-fill" stroke="none" fill="#000000"><g><text style="font: bold 20px Arial, Helvetica, sans-serif; white-space: pre;" font-weight="bold" font-size="20px" font-family="Arial, Helvetica, sans-serif"><tspan x="11.98" y="33" dominant-baseline="ideographic">Conversation Design</tspan></text></g></g></g><g id="g-root-tx_providin_zp1khbi3os22-fill" data-item-order="2000000000" transform="translate(546, 579)"><g id="tx_providin_zp1khbi3os22-fill" stroke="none" fill="#000000"><g><text style="font: 15px Arial, Helvetica, sans-serif; white-space: pre;" font-size="15px" font-family="Arial, Helvetica, sans-serif"><tspan x="12.63" y="27" dominant-baseline="ideographic">Providing assistance during the </tspan><tspan x="51.4" y="45" dominant-baseline="ideographic">development phase</tspan></text></g></g></g><g id="g-root-tx_business_1448lini3hr0s-fill" data-item-order="2000000000" transform="translate(42, 159)"><g id="tx_business_1448lini3hr0s-fill" stroke="none" fill="#000000"><g><text style="font: bold 20px Arial, Helvetica, sans-serif; white-space: pre;" font-weight="bold" font-size="20px" font-family="Arial, Helvetica, sans-serif"><tspan x="12.2" y="33" dominant-baseline="ideographic">Business Assessment</tspan></text></g></g></g><g id="g-root-tx_continuo_v982cvi3hpfk-fill" data-item-order="2000000000" transform="translate(756, 135)"><g id="tx_continuo_v982cvi3hpfk-fill" stroke="none" fill="#000000"><g><text style="font: bold 20px Arial, Helvetica, sans-serif; white-space: pre;" font-weight="bold" font-size="20px" font-family="Arial, Helvetica, sans-serif"><tspan x="20.45" y="33" dominant-baseline="ideographic">Continuous </tspan><tspan x="13.2" y="57" dominant-baseline="ideographic">Improvement</tspan></text></g></g></g><g id="g-root-tx_conversa_1czvlrji3hq83-fill" data-item-order="2000000000" transform="translate(252, 39)"><g id="tx_conversa_1czvlrji3hq83-fill" stroke="none" fill="#000000"><g><text style="font: bold 25px Arial, Helvetica, sans-serif; white-space: pre;" font-weight="bold" font-size="25px" font-family="Arial, Helvetica, sans-serif"><tspan x="17.33" y="42" dominant-baseline="ideographic">Conversational AI Consulting Process</tspan></text></g></g></g><g id="g-root-tx_strategy_1d0i2uni3oqh3-fill" data-item-order="2000000000" transform="translate(210, 543)"><g id="tx_strategy_1d0i2uni3oqh3-fill" stroke="none" fill="#000000"><g><text style="font: bold 20px Arial, Helvetica, sans-serif; white-space: pre;" font-weight="bold" font-size="20px" font-family="Arial, Helvetica, sans-serif"><tspan x="12.41" y="33" dominant-baseline="ideographic">Strategy Development</tspan></text></g></g></g><g id="g-root-tx_developm_zp1khbi3os21-fill" data-item-order="2000000000" transform="translate(546, 543)"><g id="tx_developm_zp1khbi3os21-fill" stroke="none" fill="#000000"><g><text style="font: bold 20px Arial, Helvetica, sans-serif; white-space: pre;" font-weight="bold" font-size="20px" font-family="Arial, Helvetica, sans-serif"><tspan x="14.1" y="33" dominant-baseline="ideographic">Development Support</tspan></text></g></g></g><g id="g-root-tx_formulat_18kokq7i3or9c-fill" data-item-order="2000000000" transform="translate(210, 579)"><g id="tx_formulat_18kokq7i3or9c-fill" stroke="none" fill="#000000"><g><text style="font: 15px Arial, Helvetica, sans-serif; white-space: pre;" font-size="15px" font-family="Arial, Helvetica, sans-serif"><tspan x="13.3" y="27" dominant-baseline="ideographic">Formulating a strategic plan for </tspan><tspan x="56.66" y="45" dominant-baseline="ideographic">AI implementation</tspan></text></g></g></g><g id="g-root-tf_4njzsfi3opoj-stroke" data-item-order="1999338752"></g><g id="g-root-cp_0_g-0_4l23fzi3hpmt-stroke" data-item-order="1999449681" transform="translate(66.21098327636719, 303)"><g id="cp_0_g-0_4l23fzi3hpmt-stroke" fill="none" stroke-linecap="round" stroke-linejoin="round" stroke-miterlimit="4" stroke="#fc7a1e" stroke-width="2" stroke-dasharray="5.0, 7.0"><g><path d="M 177.578001 100C 174.501601 143.5917 138.163501 178 93.789001 178C 49.414501 178 13.076501 143.5917 10.000001 100M 345.578 88C 342.5016 44.4083 306.1635 10 261.789 10C 217.4145 10 181.0765 44.4083 178 88M 513.578016 100C 510.501616 143.5917 474.163516 178 429.789016 178C 385.414516 178 349.076516 143.5917 346.000016 100M 681.578016 88C 678.501616 44.4083 642.163516 10 597.789016 10C 553.414516 10 517.076516 44.4083 514.000016 88M 849.577955 100C 846.501555 143.5917 810.163455 178 765.788955 178C 721.414455 178 685.076455 143.5917 681.999955 100"></path></g></g></g><g id="g-root-cp_1_g-1_1_1uqj567i3hq8f-stroke" data-item-order="1999449694" transform="translate(60, 246)"><g id="cp_1_g-1_1_1uqj567i3hq8f-stroke" fill="none" stroke-linecap="round" stroke-linejoin="round" stroke-miterlimit="4" stroke="#fc7a1e" stroke-width="2" stroke-dasharray="5.0, 7.0"><g><path d="M 34 151C 34.000002 187.450795 63.549208 217.000002 100.000002 217.000002C 136.450795 217.000002 166.000002 187.450795 166.000002 151.000002C 166.000002 114.549208 136.450795 85.000002 100.000002 85.000002C 63.549208 85.000002 34.000002 114.549208 34.000002 151.000002M 10 151C 10 154.313709 12.686292 157 16 157C 19.313709 157 22 154.313709 22 151C 22 147.686292 19.313709 145 16 145C 12.686292 145 10 147.686292 10 151"></path></g></g><g id="cp_1_g-1_1_1uqj567i3hq8f-stroke" fill="none" stroke-linecap="round" stroke-linejoin="round" stroke-miterlimit="4" stroke="#fc7a1e" stroke-width="2" stroke-dasharray="5.0, 7.0"><g><path d="M 109 19C 109 23.9706 104.9706 28 100 28C 95.0294 28 91 23.9706 91 19C 91 14.0294 95.0294 10 100 10C 104.9706 10 109 14.0294 109 19Z"></path></g></g></g><g id="g-root-cp_2_g-2_58lbji3hqf5-stroke" data-item-order="1999449706" transform="translate(228, 321)"><g id="cp_2_g-2_58lbji3hqf5-stroke" fill="none" stroke-linecap="round" stroke-linejoin="round" stroke-miterlimit="4" stroke="#fc7a1e" stroke-width="2" stroke-dasharray="5.0, 7.0"><g><path d="M 34 76C 34.000002 112.450795 63.549208 142.000002 100.000002 142.000002C 136.450795 142.000002 166.000002 112.450795 166.000002 76.000002C 166.000002 39.549208 136.450795 10.000002 100.000002 10.000002C 63.549208 10.000002 34.000002 39.549208 34.000002 76.000002M 10 76C 10 79.313709 12.686292 82 16 82C 19.313709 82 22 79.313709 22 76C 22 72.686292 19.313709 70 16 70C 12.686292 70 10 72.686292 10 76"></path></g></g><g id="cp_2_g-2_58lbji3hqf5-stroke" fill="none" stroke-linecap="round" stroke-linejoin="round" stroke-miterlimit="4" stroke="#fc7a1e" stroke-width="2" stroke-dasharray="5.0, 7.0"><g><path d="M 109 208C 109 212.9706 104.9706 217 100 217C 95.0294 217 91 212.9706 91 208C 91 203.0294 95.0294 199 100 199C 104.9706 199 109 203.0294 109 208Z"></path></g></g></g><g id="g-root-cp_3_g-3_1_1qapn1ri3hr0r-stroke" data-item-order="1999449718" transform="translate(396, 246)"><g id="cp_3_g-3_1_1qapn1ri3hr0r-stroke" fill="none" stroke-linecap="round" stroke-linejoin="round" stroke-miterlimit="4" stroke="#fc7a1e" stroke-width="2" stroke-dasharray="5.0, 7.0"><g><path d="M 34 151C 34.000002 187.450795 63.549208 217.000002 100.000002 217.000002C 136.450795 217.000002 166.000002 187.450795 166.000002 151.000002C 166.000002 114.549208 136.450795 85.000002 100.000002 85.000002C 63.549208 85.000002 34.000002 114.549208 34.000002 151.000002M 10 151C 10 154.313709 12.686292 157 16 157C 19.313709 157 22 154.313709 22 151C 22 147.686292 19.313709 145 16 145C 12.686292 145 10 147.686292 10 151"></path></g></g><g id="cp_3_g-3_1_1qapn1ri3hr0r-stroke" fill="none" stroke-linecap="round" stroke-linejoin="round" stroke-miterlimit="4" stroke="#fc7a1e" stroke-width="2" stroke-dasharray="5.0, 7.0"><g><path d="M 109 19C 109 23.9706 104.9706 28 100 28C 95.0294 28 91 23.9706 91 19C 91 14.0294 95.0294 10 100 10C 104.9706 10 109 14.0294 109 19Z"></path></g></g></g><g id="g-root-cp_4_g-4_1qapn1ri3hr0t-stroke" data-item-order="1999449730" transform="translate(564, 321)"><g id="cp_4_g-4_1qapn1ri3hr0t-stroke" fill="none" stroke-linecap="round" stroke-linejoin="round" stroke-miterlimit="4" stroke="#fc7a1e" stroke-width="2" stroke-dasharray="5.0, 7.0"><g><path d="M 34 76C 34.000002 112.450795 63.549208 142.000002 100.000002 142.000002C 136.450795 142.000002 166.000002 112.450795 166.000002 76.000002C 166.000002 39.549208 136.450795 10.000002 100.000002 10.000002C 63.549208 10.000002 34.000002 39.549208 34.000002 76.000002M 10 76C 10 79.313709 12.686292 82 16 82C 19.313709 82 22 79.313709 22 76C 22 72.686292 19.313709 70 16 70C 12.686292 70 10 72.686292 10 76"></path></g></g><g id="cp_4_g-4_1qapn1ri3hr0t-stroke" fill="none" stroke-linecap="round" stroke-linejoin="round" stroke-miterlimit="4" stroke="#fc7a1e" stroke-width="2" stroke-dasharray="5.0, 7.0"><g><path d="M 109 208C 109 212.9706 104.9706 217 100 217C 95.0294 217 91 212.9706 91 208C 91 203.0294 95.0294 199 100 199C 104.9706 199 109 203.0294 109 208Z"></path></g></g></g><g id="g-root-cp_5_g-5_1_1lvim0fi3honb-stroke" data-item-order="1999449742" transform="translate(732, 246)"><g id="cp_5_g-5_1_1lvim0fi3honb-stroke" fill="none" stroke-linecap="round" stroke-linejoin="round" stroke-miterlimit="4" stroke="#fc7a1e" stroke-width="2" stroke-dasharray="5.0, 7.0"><g><path d="M 34 151C 34.000002 187.450795 63.549208 217.000002 100.000002 217.000002C 136.450795 217.000002 166.000002 187.450795 166.000002 151.000002C 166.000002 114.549208 136.450795 85.000002 100.000002 85.000002C 63.549208 85.000002 34.000002 114.549208 34.000002 151.000002M 10 151C 10 154.313709 12.686292 157 16 157C 19.313709 157 22 154.313709 22 151C 22 147.686292 19.313709 145 16 145C 12.686292 145 10 147.686292 10 151M 178 151C 178 154.313709 180.686292 157 184 157C 187.313709 157 190 154.313709 190 151C 190 147.686292 187.313709 145 184 145C 180.686292 145 178 147.686292 178 151"></path></g></g><g id="cp_5_g-5_1_1lvim0fi3honb-stroke" fill="none" stroke-linecap="round" stroke-linejoin="round" stroke-miterlimit="4" stroke="#fc7a1e" stroke-width="2" stroke-dasharray="5.0, 7.0"><g><path d="M 109 19C 109 23.9706 104.9706 28 100 28C 95.0294 28 91 23.9706 91 19C 91 14.0294 95.0294 10 100 10C 104.9706 10 109 14.0294 109 19Z"></path></g></g></g><g id="g-root-cp_-1_line_1lvim0fi3hond-stroke" data-item-order="1999449755" transform="translate(150, 264)"><g id="cp_-1_line_1lvim0fi3hond-stroke" fill="none" stroke-linecap="round" stroke-linejoin="round" stroke-miterlimit="4" stroke="#fc7a1e" stroke-width="2" stroke-dasharray="5.0, 7.0"><g><path d="M 10 67L 10 10"></path></g></g></g><g id="g-root-cp_-1_line_1_1lvim0fi3honf-stroke" data-item-order="1999449759" transform="translate(486, 264)"><g id="cp_-1_line_1_1lvim0fi3honf-stroke" fill="none" stroke-linecap="round" stroke-linejoin="round" stroke-miterlimit="4" stroke="#fc7a1e" stroke-width="2" stroke-dasharray="5.0, 7.0"><g><path d="M 10 67L 10 10"></path></g></g></g><g id="g-root-cp_-1_line_2_1hfp3vzi3hpfp-stroke" data-item-order="1999449763" transform="translate(822, 264)"><g id="cp_-1_line_2_1hfp3vzi3hpfp-stroke" fill="none" stroke-linecap="round" stroke-linejoin="round" stroke-miterlimit="4" stroke="#fc7a1e" stroke-width="2" stroke-dasharray="5.0, 7.0"><g><path d="M 10 67L 10 10"></path></g></g></g><g id="g-root-cp_-1_line_3_1hfp3vzi3hpfr-stroke" data-item-order="1999449767" transform="translate(318, 453)"><g id="cp_-1_line_3_1hfp3vzi3hpfr-stroke" fill="none" stroke-linecap="round" stroke-linejoin="round" stroke-miterlimit="4" stroke="#fc7a1e" stroke-width="2" stroke-dasharray="5.0, 7.0"><g><path d="M 10 67L 10 10"></path></g></g></g><g id="g-root-cp_-1_line_4_1hfp3vzi3hpft-stroke" data-item-order="1999449771" transform="translate(654, 453)"><g id="cp_-1_line_4_1hfp3vzi3hpft-stroke" fill="none" stroke-linecap="round" stroke-linejoin="round" stroke-miterlimit="4" stroke="#fc7a1e" stroke-width="2" stroke-dasharray="5.0, 7.0"><g><path d="M 10 67L 10 10"></path></g></g></g><g id="g-root-ic_bar_hxrjzji3hr0i-stroke" data-item-order="1999996400" transform="translate(120, 357)"></g><g id="g-root-ic_stra_18k23n3i3j4eb-stroke" data-item-order="1999996400" transform="translate(288, 357)"></g><g id="g-root-ic_text_1luw4xbi3kjd0-stroke" data-item-order="1999996400" transform="translate(456, 357)"></g><g id="g-root-ic_4_142d69bi3lwxx-stroke" data-item-order="1999996400" transform="translate(624, 357)"></g><g id="g-root-ic_spar_dj701bi3naq6-stroke" data-item-order="1999996400" transform="translate(792, 357)"></g><g id="g-root-tx_crafting_qtek8fi3hpfz-stroke" data-item-order="2000000000" transform="translate(384, 195)"></g><g id="g-root-tx_adapting_mdl23zi3hq89-stroke" data-item-order="2000000000" transform="translate(714, 195)"></g><g id="g-root-tx_evaluati_zp1khbi3hon9-stroke" data-item-order="2000000000" transform="translate(54, 195)"></g><g id="g-root-tx_conversa_zp1khbi3hona-stroke" data-item-order="2000000000" transform="translate(384, 159)"></g><g id="g-root-tx_providin_zp1khbi3os22-stroke" data-item-order="2000000000" transform="translate(546, 579)"></g><g id="g-root-tx_business_1448lini3hr0s-stroke" data-item-order="2000000000" transform="translate(42, 159)"></g><g id="g-root-tx_continuo_v982cvi3hpfk-stroke" data-item-order="2000000000" transform="translate(756, 135)"></g><g id="g-root-tx_conversa_1czvlrji3hq83-stroke" data-item-order="2000000000" transform="translate(252, 39)"></g><g id="g-root-tx_strategy_1d0i2uni3oqh3-stroke" data-item-order="2000000000" transform="translate(210, 543)"></g><g id="g-root-tx_developm_zp1khbi3os21-stroke" data-item-order="2000000000" transform="translate(546, 543)"></g><g id="g-root-tx_formulat_18kokq7i3or9c-stroke" data-item-order="2000000000" transform="translate(210, 579)"></g></g></g></svg>