<?xml version="1.0" encoding="utf-8" standalone="yes"?>
<!DOCTYPE svg PUBLIC "-//W3C//DTD SVG 1.1//EN" "http://www.w3.org/Graphics/SVG/1.1/DTD/svg11.dtd">
<svg width="912" height="846" viewBox="0 0 912 846" style="fill:none;stroke:none;fill-rule:evenodd;clip-rule:evenodd;stroke-linecap:round;stroke-linejoin:round;stroke-miterlimit:1.5;" version="1.1" xmlns="http://www.w3.org/2000/svg" xmlns:xlink="http://www.w3.org/1999/xlink"><style class="text-font-style fontImports" data-font-family="Arial"></style><rect id="" x="0" y="0" width="912" height="846" style="fill: #ffffff;"></rect><g id="items" style="isolation: isolate"><g id="blend" style="mix-blend-mode: normal"><g id="g-root-tf_2r4r5pavwga-fill" data-item-order="-771552"><g id="tf_2r4r5pavwga-fill" stroke="none" fill="#ffffff"><g><path d="M 0 0L 912 0L 912 846L 0 846Z"></path></g></g></g><g id="g-root-ro_4g2nddpb8jkc-fill" data-item-order="-35640" transform="translate(344, 269)"><g id="ro_4g2nddpb8jkc-fill" stroke="none" fill="#000000"><g><path d="M 34 10L 166 10C 166 10 190 10 190 34L 190 184C 190 184 190 208 166 208L 34 208C 34 208 10 208 10 184L 10 34C 10 34 10 10 34 10"></path></g></g></g><g id="g-root-ro_1uo1oltpauhaj-fill" data-item-order="-15552" transform="translate(14, 452)"><g id="ro_1uo1oltpauhaj-fill" stroke="none" fill="#9cb064"><g><path d="M 22 10L 286 10C 286 10 298 10 298 22L 298 52C 298 52 298 64 286 64L 22 64C 22 64 10 64 10 52L 10 22C 10 22 10 10 22 10"></path></g></g></g><g id="g-root-ro_18lbeflpb9z42-fill" data-item-order="-14904" transform="translate(566, 398)"><g id="ro_18lbeflpb9z42-fill" stroke="none" fill="#6366f1"><g><path d="M 22 10L 274 10C 274 10 286 10 286 22L 286 52C 286 52 286 64 274 64L 22 64C 22 64 10 64 10 52L 10 22C 10 22 10 10 22 10"></path></g></g></g><g id="g-root-ro_1q6cr81pavwge-fill" data-item-order="-12960" transform="translate(62, 122)"><g id="ro_1q6cr81pavwge-fill" stroke="none" fill="#9a6ab3"><g><path d="M 22 10L 238 10C 238 10 250 10 250 22L 250 52C 250 52 250 64 238 64L 22 64C 22 64 10 64 10 52L 10 22C 10 22 10 10 22 10"></path></g></g></g><g id="g-root-ro_v641jlpbe7lv-fill" data-item-order="-12312" transform="translate(320, 638)"><g id="ro_v641jlpbe7lv-fill" stroke="none" fill="#df6e54"><g><path d="M 22 10L 226 10C 226 10 238 10 238 22L 238 52C 238 52 238 64 226 64L 22 64C 22 64 10 64 10 52L 10 22C 10 22 10 10 22 10"></path></g></g></g><g id="g-root-ro_1ly0uz5pb8ljj-fill" data-item-order="-10368" transform="translate(560, 176)"><g id="ro_1ly0uz5pb8ljj-fill" stroke="none" fill="#58cb9c"><g><path d="M 22 10L 190 10C 190 10 202 10 202 22L 202 52C 202 52 202 64 190 64L 22 64C 22 64 10 64 10 52L 10 22C 10 22 10 10 22 10"></path></g></g></g><g id="g-root-cu_qp1oeppavwg0-fill" data-item-order="0" transform="translate(253.5999755859375, 176)"></g><g id="g-root-cu_zk27khpavy11-fill" data-item-order="0" transform="translate(260, 176)"></g><g id="g-root-cu_v4v6j5pavvnk-fill" data-item-order="0" transform="translate(260, 176)"></g><g id="g-root-cu_m986a9pavwgc-fill" data-item-order="0" transform="translate(260, 176)"></g><g id="g-root-cu_m986a9pavwge-fill" data-item-order="0" transform="translate(260, 176)"></g><g id="g-root-cu_hteo5tpavx8q-fill" data-item-order="0" transform="translate(260, 176)"></g><g id="g-root-cu_v4v6j5pavvnm-fill" data-item-order="0" transform="translate(267.5, 176)"></g><g id="g-root-tx_tensorfl_1lua0ghpbe6me-fill" data-item-order="0" transform="translate(146, 188)"><g id="tx_tensorfl_1lua0ghpbe6me-fill" stroke="none" fill="#fc7a1e"><g><text style="font: 20px Arial, Helvetica, sans-serif; white-space: pre;" font-size="20px" font-family="Arial, Helvetica, sans-serif"><tspan x="12.87" y="33" dominant-baseline="ideographic">TensorFlow</tspan></text></g></g></g><g id="g-root-tx_89reduct_v7zgsxpbe6mm-fill" data-item-order="0" transform="translate(368, 740)"><g id="tx_89reduct_v7zgsxpbe6mm-fill" stroke="none" fill="#fc7a1e"><g><text style="font: 20px Arial, Helvetica, sans-serif; white-space: pre;" font-size="20px" font-family="Arial, Helvetica, sans-serif"><tspan x="13.41" y="33" dominant-baseline="ideographic">89% Reduction in Authentication </tspan><tspan x="135.55" y="57" dominant-baseline="ideographic">Time</tspan></text></g></g></g><g id="g-root-cu_1q6cr81pavwgf-fill" data-item-order="0" transform="translate(518, 203)"></g><g id="g-root-tx_aienhanc_ddl61dpavy15-fill" data-item-order="0" transform="translate(68, 26)"><g id="tx_aienhanc_ddl61dpavy15-fill" stroke="none" fill="#000000"><g><text style="font: bold 25px Arial, Helvetica, sans-serif; white-space: pre;" font-weight="bold" font-size="25px" font-family="Arial, Helvetica, sans-serif"><tspan x="17.33" y="39" dominant-baseline="ideographic">AI-Enhanced Speech &amp; Voice Recognition: Transforming User </tspan><tspan x="320.63" y="69" dominant-baseline="ideographic">Interaction</tspan></text></g></g></g><g id="g-root-tx_python_1cyn07lpbe7f3-fill" data-item-order="0" transform="translate(182, 224)"><g id="tx_python_1cyn07lpbe7f3-fill" stroke="none" fill="#fc7a1e"><g><text style="font: 20px Arial, Helvetica, sans-serif; white-space: pre;" font-size="20px" font-family="Arial, Helvetica, sans-serif"><tspan x="14.87" y="33" dominant-baseline="ideographic">Python</tspan></text></g></g></g><g id="g-root-cu_1hapqz5pavy1a-fill" data-item-order="0" transform="translate(590, 230)"></g><g id="g-root-cu_1lqj93lpavy0x-fill" data-item-order="0" transform="translate(590, 230)"></g><g id="g-root-cu_1cvipxtpavvnv-fill" data-item-order="0" transform="translate(590, 230)"></g><g id="g-root-cu_1cvipxtpavvnx-fill" data-item-order="0" transform="translate(590, 230)"></g><g id="g-root-tx_customsp_v641jlpbe7lw-fill" data-item-order="0" transform="translate(614, 242)"><g id="tx_customsp_v641jlpbe7lw-fill" stroke="none" fill="#fc7a1e"><g><text style="font: 20px Arial, Helvetica, sans-serif; white-space: pre;" font-size="20px" font-family="Arial, Helvetica, sans-serif"><tspan x="15.26" y="33" dominant-baseline="ideographic">Custom Speech Recognition</tspan></text></g></g></g><g id="g-root-tx_aws_1hegic1pbe7eo-fill" data-item-order="0" transform="translate(200, 260)"><g id="tx_aws_1hegic1pbe7eo-fill" stroke="none" fill="#fc7a1e"><g><text style="font: 20px Arial, Helvetica, sans-serif; white-space: pre;" font-size="20px" font-family="Arial, Helvetica, sans-serif"><tspan x="17.59" y="33" dominant-baseline="ideographic">AWS</tspan></text></g></g></g><g id="g-root-tx_voiceass_mb3idtpbe58t-fill" data-item-order="0" transform="translate(614, 278)"><g id="tx_voiceass_mb3idtpbe58t-fill" stroke="none" fill="#fc7a1e"><g><text style="font: 20px Arial, Helvetica, sans-serif; white-space: pre;" font-size="20px" font-family="Arial, Helvetica, sans-serif"><tspan x="13.04" y="33" dominant-baseline="ideographic">Voice Assistant Development</tspan></text></g></g></g><g id="g-root-tx_googlecl_18jfz69pbe51l-fill" data-item-order="0" transform="translate(122, 296)"><g id="tx_googlecl_18jfz69pbe51l-fill" stroke="none" fill="#fc7a1e"><g><text style="font: 20px Arial, Helvetica, sans-serif; white-space: pre;" font-size="20px" font-family="Arial, Helvetica, sans-serif"><tspan x="14.84" y="33" dominant-baseline="ideographic">Google Cloud</tspan></text></g></g></g><g id="g-root-tx_biometri_hva09dpbe612-fill" data-item-order="0" transform="translate(614, 314)"><g id="tx_biometri_hva09dpbe612-fill" stroke="none" fill="#fc7a1e"><g><text style="font: 20px Arial, Helvetica, sans-serif; white-space: pre;" font-size="20px" font-family="Arial, Helvetica, sans-serif"><tspan x="16.72" y="33" dominant-baseline="ideographic">Biometric Authentication</tspan></text></g></g></g><g id="g-root-tx_nlu_18jfz69pbe51m-fill" data-item-order="0" transform="translate(206, 332)"><g id="tx_nlu_18jfz69pbe51m-fill" stroke="none" fill="#fc7a1e"><g><text style="font: 20px Arial, Helvetica, sans-serif; white-space: pre;" font-size="20px" font-family="Arial, Helvetica, sans-serif"><tspan x="13.99" y="33" dominant-baseline="ideographic">NLU</tspan></text></g></g></g><g id="g-root-tx_speechan_hva09dpbe613-fill" data-item-order="0" transform="translate(614, 350)"><g id="tx_speechan_hva09dpbe613-fill" stroke="none" fill="#fc7a1e"><g><text style="font: 20px Arial, Helvetica, sans-serif; white-space: pre;" font-size="20px" font-family="Arial, Helvetica, sans-serif"><tspan x="11.84" y="33" dominant-baseline="ideographic">Speech Analytics</tspan></text></g></g></g><g id="g-root-tx_acoustic_143mh1tpbe5tv-fill" data-item-order="0" transform="translate(80, 368)"><g id="tx_acoustic_143mh1tpbe5tv-fill" stroke="none" fill="#fc7a1e"><g><text style="font: 20px Arial, Helvetica, sans-serif; white-space: pre;" font-size="20px" font-family="Arial, Helvetica, sans-serif"><tspan x="12.84" y="33" dominant-baseline="ideographic">Acoustic Modeling</tspan></text></g></g></g><g id="g-root-tx_transfor_143mh1tpbe5tw-fill" data-item-order="0" transform="translate(62, 404)"><g id="tx_transfor_143mh1tpbe5tw-fill" stroke="none" fill="#fc7a1e"><g><text style="font: 20px Arial, Helvetica, sans-serif; white-space: pre;" font-size="20px" font-family="Arial, Helvetica, sans-serif"><tspan x="16.9" y="33" dominant-baseline="ideographic">Transformer Models</tspan></text></g></g></g><g id="g-root-cu_1lqj93lpavx8t-fill" data-item-order="0" transform="translate(302, 401)"></g><g id="g-root-cu_1lqj93lpavx8q-fill" data-item-order="0" transform="translate(518, 401)"></g><g id="g-root-cu_1q6cr81pavx8g-fill" data-item-order="0" transform="translate(302, 149)"></g><g id="g-root-cu_hteo5tpavx8s-fill" data-item-order="0" transform="translate(344, 692)"></g><g id="g-root-cu_hteo5tpavx8v-fill" data-item-order="0" transform="translate(344, 692)"></g><g id="g-root-cu_1cvipxtpavvnz-fill" data-item-order="0" transform="translate(590, 452)"></g><g id="g-root-cu_18fp7tdpavwga-fill" data-item-order="0" transform="translate(590, 452)"></g><g id="g-root-cu_13zvpoxpavx8k-fill" data-item-order="0" transform="translate(590, 452)"></g><g id="g-root-tx_300faste_143mh1tpbe5tx-fill" data-item-order="0" transform="translate(368, 704)"><g id="tx_300faste_143mh1tpbe5tx-fill" stroke="none" fill="#fc7a1e"><g><text style="font: 20px Arial, Helvetica, sans-serif; white-space: pre;" font-size="20px" font-family="Arial, Helvetica, sans-serif"><tspan x="12.28" y="33" dominant-baseline="ideographic">300% Faster Input</tspan></text></g></g></g><g id="g-root-tx_healthca_dfgi4xpbe6tc-fill" data-item-order="0" transform="translate(614, 464)"><g id="tx_healthca_dfgi4xpbe6tc-fill" stroke="none" fill="#fc7a1e"><g><text style="font: 20px Arial, Helvetica, sans-serif; white-space: pre;" font-size="20px" font-family="Arial, Helvetica, sans-serif"><tspan x="15.64" y="33" dominant-baseline="ideographic">Healthcare</tspan></text></g></g></g><g id="g-root-cu_1hapqz5pavy17-fill" data-item-order="0" transform="translate(434, 467)"></g><g id="g-root-cu_zk27khpavy0x-fill" data-item-order="0" transform="translate(260, 506)"></g><g id="g-root-tx_finance_dfgi4xpbe6td-fill" data-item-order="0" transform="translate(614, 500)"><g id="tx_finance_dfgi4xpbe6td-fill" stroke="none" fill="#fc7a1e"><g><text style="font: 20px Arial, Helvetica, sans-serif; white-space: pre;" font-size="20px" font-family="Arial, Helvetica, sans-serif"><tspan x="16.42" y="33" dominant-baseline="ideographic">Finance</tspan></text></g></g></g><g id="g-root-tx_usecased_4mguppbe58j-fill" data-item-order="0" transform="translate(68, 518)"><g id="tx_usecased_4mguppbe58j-fill" stroke="none" fill="#fc7a1e"><g><text style="font: 20px Arial, Helvetica, sans-serif; white-space: pre;" font-size="20px" font-family="Arial, Helvetica, sans-serif"><tspan x="17.63" y="33" dominant-baseline="ideographic">Use Case Definition</tspan></text></g></g></g><g id="g-root-cu_zk27khpavy0z-fill" data-item-order="0" transform="translate(260, 506)"></g><g id="g-root-cu_13zvpoxpavx8m-fill" data-item-order="0" transform="translate(266.3999938964844, 506)"></g><g id="g-root-tx_mobileap_4jthw1pbe7m2-fill" data-item-order="0" transform="translate(614, 536)"><g id="tx_mobileap_4jthw1pbe7m2-fill" stroke="none" fill="#fc7a1e"><g><text style="font: 20px Arial, Helvetica, sans-serif; white-space: pre;" font-size="20px" font-family="Arial, Helvetica, sans-serif"><tspan x="15.52" y="33" dominant-baseline="ideographic">Mobile Apps</tspan></text></g></g></g><g id="g-root-tx_deployme_1qa3ikxpbe5u4-fill" data-item-order="0" transform="translate(134, 554)"><g id="tx_deployme_1qa3ikxpbe5u4-fill" stroke="none" fill="#fc7a1e"><g><text style="font: 20px Arial, Helvetica, sans-serif; white-space: pre;" font-size="20px" font-family="Arial, Helvetica, sans-serif"><tspan x="16.64" y="33" dominant-baseline="ideographic">Deployment</tspan></text></g></g></g><g id="g-root-tx_refineme_1lua0ghpbe6md-fill" data-item-order="0" transform="translate(146, 590)"><g id="tx_refineme_1lua0ghpbe6md-fill" stroke="none" fill="#fc7a1e"><g><text style="font: 20px Arial, Helvetica, sans-serif; white-space: pre;" font-size="20px" font-family="Arial, Helvetica, sans-serif"><tspan x="12.86" y="33" dominant-baseline="ideographic">Refinement</tspan></text></g></g></g><g id="g-root-ic_1_4g2nddpb8jkb-fill" data-item-order="6999997696" transform="translate(410, 293)"><g id="ic_1_4g2nddpb8jkb-fill" stroke="none" fill="#ffffff"><g><path d="M 34 21.5C 30.134008 21.5 27 24.634007 27 28.5L 27 44.5C 27 45.604568 27.89543 46.5 29 46.5C 30.10457 46.5 31 45.604568 31 44.5L 31 37.5C 31 37.223858 31.223858 37 31.5 37L 36.5 37C 36.776142 37 37 37.223858 37 37.5L 37 44.5C 37 45.604568 37.895432 46.5 39 46.5C 40.104568 46.5 41 45.604568 41 44.5L 41 28.5C 41 24.634007 37.865997 21.5 34 21.5ZM 31.5 33C 31.223858 33 31 32.776142 31 32.5L 31 28.5C 31 26.843145 32.343147 25.5 34 25.5C 35.656853 25.5 37 26.843145 37 28.5L 37 32.5C 37 32.776142 36.776142 33 36.5 33ZM 20 15C 20 13.895431 19.104568 13 18 13L 14 13C 11.790861 13 10 14.790861 10 17L 10 21C 10 22.104568 10.895431 23 12 23C 13.104569 23 14 22.104568 14 21L 14 18C 14 17.447716 14.447716 17 15 17L 18 17C 19.104568 17 20 16.104568 20 15ZM 18 51L 15 51C 14.447716 51 14 50.552284 14 50L 14 47C 14 45.895432 13.104569 45 12 45C 10.895431 45 10 45.895432 10 47L 10 51C 10 53.209141 11.790861 55 14 55L 18 55C 19.104568 55 20 54.104568 20 53C 20 51.895432 19.104568 51 18 51ZM 54 13L 50 13C 48.895432 13 48 13.895431 48 15C 48 16.104568 48.895432 17 50 17L 53 17C 53.552284 17 54 17.447716 54 18L 54 21C 54 22.104568 54.895432 23 56 23C 57.104568 23 58 22.104568 58 21L 58 17C 58 14.790861 56.209141 13 54 13ZM 56 45C 54.895432 45 54 45.895432 54 47L 54 50C 54 50.552284 53.552284 51 53 51L 50 51C 48.895432 51 48 51.895432 48 53C 48 54.104568 48.895432 55 50 55L 54 55C 56.209141 55 58 53.209141 58 51L 58 47C 58 45.895432 57.104568 45 56 45Z"></path></g></g></g><g id="g-root-ic_serv_1utnv81pb8kqu-fill" data-item-order="6999999100" transform="translate(572, 188)"><g id="ic_serv_1utnv81pb8kqu-fill" stroke="none" fill="#ffffff"><g><path d="M 10.625 17.8375C 10.627933 17.635113 10.724977 17.445644 10.8875 17.324999C 11.051579 17.210913 11.259019 17.178644 11.45 17.237499L 22.700001 20.987499C 22.954351 21.077427 23.124559 21.31772 23.125 21.5875L 23.125 38.462502C 23.122066 38.664886 23.025021 38.854355 22.862499 38.974998C 22.694729 39.092781 22.479868 39.120804 22.2875 39.049999L 11.125 35.162498C 10.872602 35.077255 10.701979 34.841396 10.7 34.575001ZM 26.875 38.525002C 26.876486 38.725521 26.974096 38.913155 27.13744 39.029472C 27.300781 39.145794 27.510017 39.176674 27.700001 39.112503L 38.950001 35.162498C 39.2024 35.077255 39.37302 34.841396 39.375 34.575001L 39.375 17.9375C 39.370975 17.73978 39.275421 17.555124 39.116333 17.437645C 38.957249 17.320168 38.752651 17.283173 38.5625 17.3375L 27.3125 20.912498C 27.050785 20.994801 26.873339 21.238153 26.875 21.512501ZM 24.8125 18.15C 24.927824 18.175034 25.047176 18.175034 25.1625 18.15L 36 15.175C 36.271622 15.101868 36.460922 14.856291 36.462502 14.575C 36.468132 14.292606 36.283669 14.04153 36.012501 13.9625L 25.15 10.875C 25.038912 10.84979 24.923588 10.84979 24.8125 10.875L 14.1125 13.75C 13.845673 13.830204 13.659638 14.071546 13.65 14.349999C 13.626511 14.646065 13.814615 14.917772 14.1 15Z"></path></g></g></g><g id="g-root-ic_9_1d14wk1pb9ybt-fill" data-item-order="6999999100" transform="translate(578, 410)"><g id="ic_9_1d14wk1pb9ybt-fill" stroke="none" fill="#ffffff"><g><path d="M 30.975 23.4375C 34.975002 23.432497 38.275002 26.567499 38.475002 30.5625C 39.407974 30.128475 40.003353 29.191486 39.999996 28.162498L 40 20.137499C 39.979435 18.660076 38.764919 17.479143 37.287502 17.5C 36.919537 17.499937 36.619316 17.794598 36.612503 18.1625L 36.612503 20.137499L 31.612501 20.137499L 31.612501 17.5C 31.612501 17.127209 31.310293 16.825001 30.9375 16.825001L 28.9125 16.825001L 26.9125 14.15L 25.6625 14.15L 25.6625 11.875L 29.1 11.875C 29.600256 11.848669 29.994101 11.438414 30 10.9375C 29.994101 10.436586 29.600256 10.026331 29.1 10L 20.35 10C 19.832233 10 19.4125 10.419733 19.4125 10.9375C 19.4125 11.455267 19.832233 11.875 20.35 11.875L 23.75 11.875L 23.75 14.1125L 19.2125 14.1125L 17.200001 16.112499L 14.525 16.112499C 14.152208 16.112501 13.85 16.414707 13.85 16.7875L 13.85 20.625L 11.9125 20.625L 11.9125 16.5625C 11.9125 16.044733 11.492767 15.625 10.975 15.625C 10.457233 15.625 10.0375 16.044733 10.0375 16.5625L 10.0375 26.5625C 10.0375 27.080267 10.457233 27.5 10.975 27.5C 11.492767 27.5 11.9125 27.080267 11.9125 26.5625L 11.9125 22.5L 13.85 22.5L 13.85 26.1625C 13.856814 26.530401 14.157036 26.825064 14.525001 26.825001L 17.200001 26.825001L 19.875 31.512499L 23.5 31.512499L 23.5 30.9375C 23.499977 26.805109 26.84263 23.451275 30.975 23.4375ZM 10 10M 39.762501 38.399998L 36.887501 35.525002L 35.762501 34.412502C 37.344711 32.178844 37.190887 29.152088 35.390369 27.090351C 33.589855 25.028612 30.611382 24.46862 28.185017 25.735651C 25.758652 27.002682 24.51605 29.766891 25.178989 32.422665C 25.841927 35.078438 28.237822 36.934399 30.974998 36.912498C 32.220985 36.912579 33.434307 36.513977 34.4375 35.774998L 35.5625 36.887501L 38.4375 39.762501C 38.611534 39.940762 38.850887 40.040115 39.100002 40.037502C 39.348835 40.038677 39.587646 39.939545 39.762501 39.762501C 39.949814 39.585415 40.055946 39.33902 40.055946 39.081253C 40.055946 38.823483 39.949814 38.577084 39.762501 38.400002ZM 26.9125 30.9C 26.933167 28.661343 28.761059 26.861332 30.999771 26.875078C 33.238483 26.888823 35.044132 28.711142 35.037308 30.949886C 35.030483 33.188629 33.213757 34.999905 30.975 35C 28.731344 35 26.9125 33.181156 26.9125 30.9375Z"></path></g></g></g><g id="g-root-ic_tech_vphtpavvut-fill" data-item-order="6999999100" transform="translate(260, 134)"><g id="ic_tech_vphtpavvut-fill" stroke="none" fill="#ffffff"><g><path d="M 34.612499 14.1625C 31.737383 12.347947 28.399654 11.401751 25.000002 11.4375C 21.600348 11.401751 18.262619 12.347947 15.387501 14.1625C 12.116547 16.158297 10.08634 19.681719 10 23.512501C 10.082741 27.166304 11.950855 30.547592 15 32.5625L 12.9125 37.712502C 12.838039 37.905449 12.863853 38.122742 12.981447 38.292877C 13.099041 38.463013 13.293185 38.563961 13.5 38.5625C 13.582409 38.580051 13.667591 38.580051 13.75 38.5625L 21.3375 35.25C 22.544886 35.479656 23.770971 35.596825 25 35.600002C 28.402155 35.64135 31.74258 34.690048 34.612499 32.862503C 37.883453 30.866703 39.913662 27.343281 40 23.512501C 39.913662 19.681719 37.883453 16.158297 34.612499 14.1625ZM 25 28.6C 20.5875 28.6 17 26.3125 17 23.512501C 17 20.7125 20.5875 18.4375 25 18.4375C 29.4125 18.4375 33 20.7125 33 23.512501C 33 26.3125 29.4125 28.6 25 28.6Z"></path></g></g></g><g id="g-root-ic_exch_4hy5shpaujuq-fill" data-item-order="6999999100" transform="translate(260, 464)"><g id="ic_exch_4hy5shpaujuq-fill" stroke="none" fill="#ffffff"><g><path d="M 17.1625 16.5625L 14.8375 16.5625C 14.319733 16.5625 13.900001 16.982233 13.900001 17.5C 13.900001 18.017767 14.319733 18.4375 14.837501 18.4375L 17.1625 18.4375C 17.680267 18.4375 18.1 18.017767 18.1 17.5C 18.1 16.982233 17.680267 16.5625 17.1625 16.5625ZM 23.75 10.3125L 13.4125 10.3125C 11.795689 10.136732 10.339478 11.297237 10.15 12.9125L 10.15 19.375C 10.101037 21.225399 11.562068 22.764799 13.4125 22.8125L 23.75 22.8125C 24.640768 22.792862 25.487019 22.419184 26.101606 21.774099C 26.716196 21.129015 27.048489 20.265675 27.025 19.375L 27.025 12.9125C 26.835648 11.291807 25.371405 10.129354 23.749998 10.3125ZM 23.75 20.9375L 13.4125 20.9375C 12.600444 20.883917 11.982201 20.187696 12.025001 19.375L 12.025 15C 12.025 14.827411 12.164911 14.6875 12.3375 14.6875L 24.8375 14.6875C 25.010088 14.6875 25.15 14.827411 25.15 15L 25.15 19.375C 25.192617 20.192278 24.567036 20.890471 23.750002 20.937502ZM 10 10M 22.862499 35.474998L 19.112499 32.974998C 18.825846 32.78783 18.459961 32.771793 18.158031 32.93317C 17.856102 33.094547 17.666145 33.407673 17.6625 33.75L 17.6625 33.962502C 17.660917 34.074654 17.599352 34.177353 17.501183 34.231606C 17.403013 34.285858 17.283298 34.283337 17.1875 34.224998C 15.734888 33.311146 14.852455 31.71616 14.85 30C 14.85 29.309643 14.290356 28.75 13.6 28.75C 12.909644 28.75 12.35 29.309643 12.35 30C 12.359614 33.228424 14.434131 36.08844 17.5 37.099998C 17.62602 37.146477 17.710464 37.265694 17.7125 37.399998L 17.7125 38.75C 17.719233 39.26495 18.135048 39.680767 18.65 39.6875C 18.837662 39.689396 19.021223 39.63258 19.174999 39.525002L 22.924999 37.025002C 23.18148 36.850422 23.334976 36.560257 23.334976 36.25C 23.334976 35.939743 23.18148 35.649582 22.924999 35.475002ZM 10 10M 29.325001 14.5375L 33.074997 17.0375C 33.372089 17.212055 33.74041 17.212055 34.037498 17.0375C 34.332203 16.882433 34.522526 16.582672 34.537502 16.25L 34.537498 16.0375C 34.541496 15.929219 34.601303 15.830737 34.695534 15.777253C 34.789768 15.723768 34.904984 15.722916 35 15.775C 36.457394 16.685863 37.344845 18.281385 37.349998 20C 37.349998 20.690357 37.909645 21.25 38.599998 21.25C 39.290356 21.25 39.849998 20.690357 39.849998 20C 39.847588 16.784824 37.796116 13.928856 34.75 12.900001C 34.623978 12.853519 34.539532 12.734304 34.537498 12.6L 34.537498 11.25C 34.538437 10.906449 34.351391 10.589904 34.049999 10.425C 33.754433 10.244935 33.383068 10.244935 33.087502 10.425L 29.3375 12.925C 29.071823 13.092905 28.911249 13.385715 28.912502 13.7C 28.896345 14.031628 29.052252 14.348166 29.324999 14.537499ZM 37.337502 22.1875L 31.087502 22.1875C 29.882217 22.194328 28.906828 23.169716 28.9 24.375L 28.9 37.5C 28.864773 38.664383 29.773554 39.640068 30.937502 39.687504L 37.5 39.6875C 38.659004 39.633442 39.560387 38.659721 39.525002 37.500004L 39.525002 24.375C 39.518169 23.169716 38.542782 22.194328 37.337498 22.1875ZM 34.212502 38.4375C 33.694733 38.4375 33.275002 38.017769 33.275002 37.5C 33.275002 36.982235 33.694733 36.5625 34.212502 36.5625C 34.730267 36.5625 35.150002 36.982235 35.150002 37.5C 35.143269 38.014954 34.727451 38.430767 34.212498 38.4375ZM 31.087502 24.0625L 37.337502 24.0625C 37.51009 24.0625 37.650002 24.202412 37.650002 24.375L 37.650002 35C 37.650002 35.172588 37.51009 35.3125 37.337502 35.3125L 31.087502 35.3125C 30.914909 35.3125 30.775002 35.172588 30.775002 35L 30.775002 24.375C 30.775002 24.202412 30.914909 24.0625 31.087502 24.0625Z"></path></g></g></g><g id="g-root-ic_cont_zlxjo1pbe6tm-fill" data-item-order="6999999100" transform="translate(338, 650)"><g id="ic_cont_zlxjo1pbe6tm-fill" stroke="none" fill="#ffffff"><g><path d="M 17.040001 10.7975C 16.790081 10.153758 16.065632 9.834495 15.421885 10.084399C 14.778137 10.334305 14.458858 11.058747 14.70875 11.7025L 16.26375 15.715L 14.53875 16.375C 14.168976 16.516798 13.92819 16.87566 13.937162 17.271587C 13.946136 17.667515 14.202932 18.015099 14.578751 18.139999L 18.328751 19.389999C 18.743979 19.528032 19.199469 19.360466 19.42625 18.98625L 21.55125 15.48625C 21.759956 15.143493 21.727364 14.70591 21.470181 14.397855C 21.212996 14.0898 20.788265 13.979597 20.41375 14.12375L 18.598751 14.82L 17.040001 10.7975ZM 11 34.375C 11 26.625 17.25 20.375 25 20.375C 32.75 20.375 39 26.625 39 34.375L 39 39.75L 11 39.75L 11 34.375ZM 28.25 34.625C 28.250145 36.153969 27.184534 37.47628 25.690468 37.801117C 24.1964 38.125946 22.677956 37.365448 22.043253 35.974438C 21.408552 34.583431 21.829252 32.938118 23.053749 32.022499L 20.616249 25.32C 20.439388 24.833263 20.690659 24.295321 21.177431 24.118563C 21.664206 23.941805 22.202095 24.193188 22.37875 24.68L 24.81625 31.380001C 25.708708 31.32946 26.582581 31.648733 27.232258 32.262699C 27.881935 32.876667 28.250053 33.731113 28.25 34.625ZM 29.3825 25.315001C 29.537558 24.83308 29.282001 24.315105 28.805214 24.144918C 28.328426 23.974733 27.802643 24.21382 27.6175 24.684999L 26.9925 26.434999C 26.837442 26.916922 27.092999 27.434898 27.569788 27.605082C 28.046576 27.775267 28.572357 27.53618 28.7575 27.065001L 29.3825 25.315001ZM 34.67625 29.0175C 34.804604 29.23078 34.842865 29.486347 34.782604 29.727865C 34.72234 29.969383 34.568504 30.177019 34.355003 30.305002L 32.48 31.429998C 32.035755 31.69648 31.459602 31.55237 31.193125 31.108128C 30.926647 30.663881 31.070757 30.087729 31.514999 29.821251L 33.389999 28.696249C 33.603279 28.5679 33.858849 28.529636 34.100365 28.589899C 34.341885 28.650162 34.549519 28.803999 34.677502 29.017502ZM 15.64125 30.305C 15.197006 30.038525 15.052898 29.46237 15.319375 29.018126C 15.585853 28.573881 16.162006 28.429773 16.606251 28.696251L 18.481251 29.821251C 18.772011 29.991911 18.948744 30.305553 18.944107 30.642664C 18.93947 30.979778 18.754177 31.288441 18.458832 31.451036C 18.163486 31.613636 17.803579 31.605125 17.516251 31.428749L 15.64125 30.303749ZM 32.318748 36C 32.387375 35.487228 32.858398 35.126968 33.37125 35.195L 35.24625 35.445C 35.579113 35.488045 35.863567 35.705746 35.992081 36.0158C 36.12059 36.325855 36.073547 36.680954 35.868732 36.946854C 35.663918 37.212749 35.332588 37.348869 35 37.303749L 33.125 37.053749C 32.612228 36.985126 32.251968 36.514099 32.32 36.001251ZM 16.625 35.196251C 17.127914 35.146568 17.579702 35.504452 17.646448 36.005386C 17.713196 36.506325 17.370876 36.970016 16.872499 37.053753L 14.997499 37.303749C 14.659696 37.360508 14.317827 37.228512 14.105814 36.959465C 13.893803 36.690426 13.845401 36.327168 13.97957 36.011997C 14.11374 35.696831 14.40912 35.479923 14.75 35.446251L 16.625 35.196251Z"></path></g></g></g><g id="g-root-tx_keyservi_8dbddpb8k5p-fill" data-item-order="7000000000" transform="translate(608, 191)"><g id="tx_keyservi_8dbddpb8k5p-fill" stroke="none" fill="#ffffff"><g><text style="font: 20px Arial, Helvetica, sans-serif; white-space: pre;" font-size="20px" font-family="Arial, Helvetica, sans-serif"><tspan x="17.64" y="33" dominant-baseline="ideographic">Key Services</tspan></text></g></g></g><g id="g-root-tx_aienhanc_i0wa1dpb76kq-fill" data-item-order="7000000000" transform="translate(368, 347)"><g id="tx_aienhanc_i0wa1dpb76kq-fill" stroke="none" fill="#ffffff"><g><text style="font: 20px Arial, Helvetica, sans-serif; white-space: pre;" font-size="20px" font-family="Arial, Helvetica, sans-serif"><tspan x="16.59" y="33" dominant-baseline="ideographic">AI-Enhanced </tspan><tspan x="31.04" y="57" dominant-baseline="ideographic">Speech &amp; </tspan><tspan x="49.95" y="81" dominant-baseline="ideographic">Voice </tspan><tspan x="21.6" y="105" dominant-baseline="ideographic">Recognition</tspan></text></g></g></g><g id="g-root-tx_realworl_1lwrwsxpb9xj4-fill" data-item-order="7000000000" transform="translate(614, 413)"><g id="tx_realworl_1lwrwsxpb9xj4-fill" stroke="none" fill="#ffffff"><g><text style="font: 20px Arial, Helvetica, sans-serif; white-space: pre;" font-size="20px" font-family="Arial, Helvetica, sans-serif"><tspan x="12.02" y="33" dominant-baseline="ideographic">Real-World Applications</tspan></text></g></g></g><g id="g-root-tx_implemen_8xrnwxpauj2h-fill" data-item-order="7000000000" transform="translate(26, 467)"><g id="tx_implemen_8xrnwxpauj2h-fill" stroke="none" fill="#ffffff"><g><text style="font: 20px Arial, Helvetica, sans-serif; white-space: pre;" font-size="20px" font-family="Arial, Helvetica, sans-serif"><tspan x="16.73" y="33" dominant-baseline="ideographic">Implementation Process</tspan></text></g></g></g><g id="g-root-tx_coretech_4g2qj5pavy8c-fill" data-item-order="7000000000" transform="translate(74, 137)"><g id="tx_coretech_4g2qj5pavy8c-fill" stroke="none" fill="#ffffff"><g><text style="font: 20px Arial, Helvetica, sans-serif; white-space: pre;" font-size="20px" font-family="Arial, Helvetica, sans-serif"><tspan x="17.35" y="33" dominant-baseline="ideographic">Core Technologies</tspan></text></g></g></g><g id="g-root-tx_standout_18hkjwxpbe60x-fill" data-item-order="7000000000" transform="translate(374, 653)"><g id="tx_standout_18hkjwxpbe60x-fill" stroke="none" fill="#ffffff"><g><text style="font: 20px Arial, Helvetica, sans-serif; white-space: pre;" font-size="20px" font-family="Arial, Helvetica, sans-serif"><tspan x="12.96" y="33" dominant-baseline="ideographic">Standout Metrics</tspan></text></g></g></g><g id="g-root-tf_2r4r5pavwga-stroke" data-item-order="-771552"></g><g id="g-root-ro_4g2nddpb8jkc-stroke" data-item-order="-35640" transform="translate(344, 269)"></g><g id="g-root-ro_1uo1oltpauhaj-stroke" data-item-order="-15552" transform="translate(14, 452)"></g><g id="g-root-ro_18lbeflpb9z42-stroke" data-item-order="-14904" transform="translate(566, 398)"></g><g id="g-root-ro_1q6cr81pavwge-stroke" data-item-order="-12960" transform="translate(62, 122)"></g><g id="g-root-ro_v641jlpbe7lv-stroke" data-item-order="-12312" transform="translate(320, 638)"></g><g id="g-root-ro_1ly0uz5pb8ljj-stroke" data-item-order="-10368" transform="translate(560, 176)"></g><g id="g-root-cu_qp1oeppavwg0-stroke" data-item-order="0" transform="translate(253.5999755859375, 176)"><g id="cu_qp1oeppavwg0-stroke" fill="none" stroke-linecap="round" stroke-linejoin="round" stroke-miterlimit="4" stroke="#000000" stroke-width="2" stroke-dasharray="5.0, 7.0"><g><path d="M 34.4 10L 34.4 112L 34.4 214L 22.2 214L 10 214"></path></g></g></g><g id="g-root-cu_zk27khpavy11-stroke" data-item-order="0" transform="translate(260, 176)"><g id="cu_zk27khpavy11-stroke" fill="none" stroke-linecap="round" stroke-linejoin="round" stroke-miterlimit="4" stroke="#000000" stroke-width="2" stroke-dasharray="5.0, 7.0"><g><path d="M 28 10L 28 22L 28 34L 19 34L 10 34"></path></g></g></g><g id="g-root-cu_v4v6j5pavvnk-stroke" data-item-order="0" transform="translate(260, 176)"><g id="cu_v4v6j5pavvnk-stroke" fill="none" stroke-linecap="round" stroke-linejoin="round" stroke-miterlimit="4" stroke="#000000" stroke-width="2" stroke-dasharray="5.0, 7.0"><g><path d="M 28 10L 28 40L 28 70L 19 70L 10 70"></path></g></g></g><g id="g-root-cu_m986a9pavwgc-stroke" data-item-order="0" transform="translate(260, 176)"><g id="cu_m986a9pavwgc-stroke" fill="none" stroke-linecap="round" stroke-linejoin="round" stroke-miterlimit="4" stroke="#000000" stroke-width="2" stroke-dasharray="5.0, 7.0"><g><path d="M 28 10L 28 76L 28 142L 19 142L 10 142"></path></g></g></g><g id="g-root-cu_m986a9pavwge-stroke" data-item-order="0" transform="translate(260, 176)"><g id="cu_m986a9pavwge-stroke" fill="none" stroke-linecap="round" stroke-linejoin="round" stroke-miterlimit="4" stroke="#000000" stroke-width="2" stroke-dasharray="5.0, 7.0"><g><path d="M 28 10L 28 94L 28 178L 19 178L 10 178"></path></g></g></g><g id="g-root-cu_hteo5tpavx8q-stroke" data-item-order="0" transform="translate(260, 176)"><g id="cu_hteo5tpavx8q-stroke" fill="none" stroke-linecap="round" stroke-linejoin="round" stroke-miterlimit="4" stroke="#000000" stroke-width="2" stroke-dasharray="5.0, 7.0"><g><path d="M 28 10L 28 40L 28 238C 27.999995 244.627423 22.627411 250.000006 15.999994 250.000006L 15.9 250L 10 250"></path></g></g></g><g id="g-root-cu_v4v6j5pavvnm-stroke" data-item-order="0" transform="translate(267.5, 176)"><g id="cu_v4v6j5pavvnm-stroke" fill="none" stroke-linecap="round" stroke-linejoin="round" stroke-miterlimit="4" stroke="#000000" stroke-width="2" stroke-dasharray="5.0, 7.0"><g><path d="M 20.5 10L 20.5 34L 20.5 58L 21.3 58L 22 58L 22 82L 22 106L 16 106L 10 106"></path></g></g></g><g id="g-root-tx_tensorfl_1lua0ghpbe6me-stroke" data-item-order="0" transform="translate(146, 188)"></g><g id="g-root-tx_89reduct_v7zgsxpbe6mm-stroke" data-item-order="0" transform="translate(368, 740)"></g><g id="g-root-cu_1q6cr81pavwgf-stroke" data-item-order="0" transform="translate(518, 203)"><g id="cu_1q6cr81pavwgf-stroke" fill="none" stroke-linecap="round" stroke-linejoin="round" stroke-miterlimit="4" stroke="#000000" stroke-width="2" stroke-dasharray="5.0, 7.0"><g><path d="M 10 142L 13 142L 13.1 142C 24.642748 142.000008 33.999998 132.642759 33.999998 121.100007L 34 121L 34 30.9C 33.999999 19.357249 43.357248 10.000001 54.899999 10.000002L 55 10L 58 10"></path></g></g></g><g id="g-root-tx_aienhanc_ddl61dpavy15-stroke" data-item-order="0" transform="translate(68, 26)"></g><g id="g-root-tx_python_1cyn07lpbe7f3-stroke" data-item-order="0" transform="translate(182, 224)"></g><g id="g-root-cu_1hapqz5pavy1a-stroke" data-item-order="0" transform="translate(590, 230)"><g id="cu_1hapqz5pavy1a-stroke" fill="none" stroke-linecap="round" stroke-linejoin="round" stroke-miterlimit="4" stroke="#000000" stroke-width="2" stroke-dasharray="5.0, 7.0"><g><path d="M 10 10L 10 22L 10 34L 19 34L 28 34"></path></g></g></g><g id="g-root-cu_1lqj93lpavy0x-stroke" data-item-order="0" transform="translate(590, 230)"><g id="cu_1lqj93lpavy0x-stroke" fill="none" stroke-linecap="round" stroke-linejoin="round" stroke-miterlimit="4" stroke="#000000" stroke-width="2" stroke-dasharray="5.0, 7.0"><g><path d="M 10 10L 10 40L 10 70L 19 70L 28 70"></path></g></g></g><g id="g-root-cu_1cvipxtpavvnv-stroke" data-item-order="0" transform="translate(590, 230)"><g id="cu_1cvipxtpavvnv-stroke" fill="none" stroke-linecap="round" stroke-linejoin="round" stroke-miterlimit="4" stroke="#000000" stroke-width="2" stroke-dasharray="5.0, 7.0"><g><path d="M 10 10L 10 58L 10 106L 19 106L 28 106"></path></g></g></g><g id="g-root-cu_1cvipxtpavvnx-stroke" data-item-order="0" transform="translate(590, 230)"><g id="cu_1cvipxtpavvnx-stroke" fill="none" stroke-linecap="round" stroke-linejoin="round" stroke-miterlimit="4" stroke="#000000" stroke-width="2" stroke-dasharray="5.0, 7.0"><g><path d="M 10 10L 10 26.5L 10 130C 10.000005 136.627425 15.372589 142.000008 22.000006 142.000007L 22.1 142L 28 142"></path></g></g></g><g id="g-root-tx_customsp_v641jlpbe7lw-stroke" data-item-order="0" transform="translate(614, 242)"></g><g id="g-root-tx_aws_1hegic1pbe7eo-stroke" data-item-order="0" transform="translate(200, 260)"></g><g id="g-root-tx_voiceass_mb3idtpbe58t-stroke" data-item-order="0" transform="translate(614, 278)"></g><g id="g-root-tx_googlecl_18jfz69pbe51l-stroke" data-item-order="0" transform="translate(122, 296)"></g><g id="g-root-tx_biometri_hva09dpbe612-stroke" data-item-order="0" transform="translate(614, 314)"></g><g id="g-root-tx_nlu_18jfz69pbe51m-stroke" data-item-order="0" transform="translate(206, 332)"></g><g id="g-root-tx_speechan_hva09dpbe613-stroke" data-item-order="0" transform="translate(614, 350)"></g><g id="g-root-tx_acoustic_143mh1tpbe5tv-stroke" data-item-order="0" transform="translate(80, 368)"></g><g id="g-root-tx_transfor_143mh1tpbe5tw-stroke" data-item-order="0" transform="translate(62, 404)"></g><g id="g-root-cu_1lqj93lpavx8t-stroke" data-item-order="0" transform="translate(302, 401)"><g id="cu_1lqj93lpavx8t-stroke" fill="none" stroke-linecap="round" stroke-linejoin="round" stroke-miterlimit="4" stroke="#000000" stroke-width="2" stroke-dasharray="5.0, 7.0"><g><path d="M 58 10L 55 10L 54.9 10C 43.357248 10.000001 33.999999 19.357249 33.999999 30.9L 34 31L 34 67.1C 34.000001 78.642754 24.642752 88.000004 13.1 88.000003L 13 88L 10 88"></path></g></g></g><g id="g-root-cu_1lqj93lpavx8q-stroke" data-item-order="0" transform="translate(518, 401)"><g id="cu_1lqj93lpavx8q-stroke" fill="none" stroke-linecap="round" stroke-linejoin="round" stroke-miterlimit="4" stroke="#000000" stroke-width="2" stroke-dasharray="5.0, 7.0"><g><path d="M 10 10L 13 10L 13.1 10C 16.890621 10.003871 21.020356 11.105134 25.1 13.199999C 27.543543 14.427797 30.736306 17.584687 33.999999 22.000002C 37.263693 26.415316 40.456455 29.572206 42.899999 30.800002C 46.979643 32.894863 51.109378 33.996126 54.899999 33.999997L 55 34L 58 34"></path></g></g></g><g id="g-root-cu_1q6cr81pavx8g-stroke" data-item-order="0" transform="translate(302, 149)"><g id="cu_1q6cr81pavx8g-stroke" fill="none" stroke-linecap="round" stroke-linejoin="round" stroke-miterlimit="4" stroke="#000000" stroke-width="2" stroke-dasharray="5.0, 7.0"><g><path d="M 58 196L 55 196L 54.9 196C 43.35725 196.000002 34.000001 186.642753 34.000001 175.100001L 34 175L 34 30.9C 33.999998 19.357248 24.64275 10 13.1 10L 13 10L 10 10"></path></g></g></g><g id="g-root-cu_hteo5tpavx8s-stroke" data-item-order="0" transform="translate(344, 692)"><g id="cu_hteo5tpavx8s-stroke" fill="none" stroke-linecap="round" stroke-linejoin="round" stroke-miterlimit="4" stroke="#000000" stroke-width="2" stroke-dasharray="5.0, 7.0"><g><path d="M 10 10L 10 22L 10 34L 19 34L 28 34"></path></g></g></g><g id="g-root-cu_hteo5tpavx8v-stroke" data-item-order="0" transform="translate(344, 692)"><g id="cu_hteo5tpavx8v-stroke" fill="none" stroke-linecap="round" stroke-linejoin="round" stroke-miterlimit="4" stroke="#000000" stroke-width="2" stroke-dasharray="5.0, 7.0"><g><path d="M 10 10L 10 19L 10 70C 10.000001 76.627416 15.372584 81.999998 22.000001 81.999998L 22.1 82L 28 82"></path></g></g></g><g id="g-root-cu_1cvipxtpavvnz-stroke" data-item-order="0" transform="translate(590, 452)"><g id="cu_1cvipxtpavvnz-stroke" fill="none" stroke-linecap="round" stroke-linejoin="round" stroke-miterlimit="4" stroke="#000000" stroke-width="2" stroke-dasharray="5.0, 7.0"><g><path d="M 10 10L 10 22L 10 34L 19 34L 28 34"></path></g></g></g><g id="g-root-cu_18fp7tdpavwga-stroke" data-item-order="0" transform="translate(590, 452)"><g id="cu_18fp7tdpavwga-stroke" fill="none" stroke-linecap="round" stroke-linejoin="round" stroke-miterlimit="4" stroke="#000000" stroke-width="2" stroke-dasharray="5.0, 7.0"><g><path d="M 10 10L 10 40L 10 70L 19 70L 28 70"></path></g></g></g><g id="g-root-cu_13zvpoxpavx8k-stroke" data-item-order="0" transform="translate(590, 452)"><g id="cu_13zvpoxpavx8k-stroke" fill="none" stroke-linecap="round" stroke-linejoin="round" stroke-miterlimit="4" stroke="#000000" stroke-width="2" stroke-dasharray="5.0, 7.0"><g><path d="M 10 10L 10 22L 10 94C 10.000004 100.627423 15.372587 106.000006 22.000005 106.000005L 22.1 106L 28 106"></path></g></g></g><g id="g-root-tx_300faste_143mh1tpbe5tx-stroke" data-item-order="0" transform="translate(368, 704)"></g><g id="g-root-tx_healthca_dfgi4xpbe6tc-stroke" data-item-order="0" transform="translate(614, 464)"></g><g id="g-root-cu_1hapqz5pavy17-stroke" data-item-order="0" transform="translate(434, 467)"><g id="cu_1hapqz5pavy17-stroke" fill="none" stroke-linecap="round" stroke-linejoin="round" stroke-miterlimit="4" stroke="#000000" stroke-width="2" stroke-dasharray="5.0, 7.0"><g><path d="M 10 10L 10 95.5L 10 181"></path></g></g></g><g id="g-root-cu_zk27khpavy0x-stroke" data-item-order="0" transform="translate(260, 506)"><g id="cu_zk27khpavy0x-stroke" fill="none" stroke-linecap="round" stroke-linejoin="round" stroke-miterlimit="4" stroke="#000000" stroke-width="2" stroke-dasharray="5.0, 7.0"><g><path d="M 28 10L 28 40L 28 70L 19 70L 10 70"></path></g></g></g><g id="g-root-tx_finance_dfgi4xpbe6td-stroke" data-item-order="0" transform="translate(614, 500)"></g><g id="g-root-tx_usecased_4mguppbe58j-stroke" data-item-order="0" transform="translate(68, 518)"></g><g id="g-root-cu_zk27khpavy0z-stroke" data-item-order="0" transform="translate(260, 506)"><g id="cu_zk27khpavy0z-stroke" fill="none" stroke-linecap="round" stroke-linejoin="round" stroke-miterlimit="4" stroke="#000000" stroke-width="2" stroke-dasharray="5.0, 7.0"><g><path d="M 28 10L 28 22L 28 94C 28.000002 100.627415 22.627419 105.999998 16.000002 105.999998L 15.9 106L 10 106"></path></g></g></g><g id="g-root-cu_13zvpoxpavx8m-stroke" data-item-order="0" transform="translate(266.3999938964844, 506)"><g id="cu_13zvpoxpavx8m-stroke" fill="none" stroke-linecap="round" stroke-linejoin="round" stroke-miterlimit="4" stroke="#000000" stroke-width="2" stroke-dasharray="5.0, 7.0"><g><path d="M 21.6 10L 21.6 22L 21.6 34L 15.8 34L 10 34"></path></g></g></g><g id="g-root-tx_mobileap_4jthw1pbe7m2-stroke" data-item-order="0" transform="translate(614, 536)"></g><g id="g-root-tx_deployme_1qa3ikxpbe5u4-stroke" data-item-order="0" transform="translate(134, 554)"></g><g id="g-root-tx_refineme_1lua0ghpbe6md-stroke" data-item-order="0" transform="translate(146, 590)"></g><g id="g-root-ic_1_4g2nddpb8jkb-stroke" data-item-order="6999997696" transform="translate(410, 293)"></g><g id="g-root-ic_serv_1utnv81pb8kqu-stroke" data-item-order="6999999100" transform="translate(572, 188)"></g><g id="g-root-ic_9_1d14wk1pb9ybt-stroke" data-item-order="6999999100" transform="translate(578, 410)"></g><g id="g-root-ic_tech_vphtpavvut-stroke" data-item-order="6999999100" transform="translate(260, 134)"></g><g id="g-root-ic_exch_4hy5shpaujuq-stroke" data-item-order="6999999100" transform="translate(260, 464)"></g><g id="g-root-ic_cont_zlxjo1pbe6tm-stroke" data-item-order="6999999100" transform="translate(338, 650)"></g><g id="g-root-tx_keyservi_8dbddpb8k5p-stroke" data-item-order="7000000000" transform="translate(608, 191)"></g><g id="g-root-tx_aienhanc_i0wa1dpb76kq-stroke" data-item-order="7000000000" transform="translate(368, 347)"></g><g id="g-root-tx_realworl_1lwrwsxpb9xj4-stroke" data-item-order="7000000000" transform="translate(614, 413)"></g><g id="g-root-tx_implemen_8xrnwxpauj2h-stroke" data-item-order="7000000000" transform="translate(26, 467)"></g><g id="g-root-tx_coretech_4g2qj5pavy8c-stroke" data-item-order="7000000000" transform="translate(74, 137)"></g><g id="g-root-tx_standout_18hkjwxpbe60x-stroke" data-item-order="7000000000" transform="translate(374, 653)"></g></g></g></svg>